<?xml version="1.0" encoding="utf-8"?>
<!-- Generator: Adobe Illustrator 18.1.1, SVG Export Plug-In . SVG Version: 6.00 Build 0)  -->
<svg version="1.0" id="Camada_1" xmlns="http://www.w3.org/2000/svg" xmlns:xlink="http://www.w3.org/1999/xlink" x="0px" y="0px"
     viewBox="0 0 500 500" enable-background="new 0 0 500 500" xml:space="preserve">
    <g>
        <path d="M111.8,6.5C170,6.5,217.3,53.8,217.3,112S170,217.5,111.8,217.5S6.3,170.2,6.3,112S53.6,6.5,111.8,6.5z M47.6,467.3c-3.5,0-7-1.3-9.7-4c-5.4-5.4-5.4-14.1,0-19.5L443.7,38c5.4-5.4,14.1-5.4,19.5,0s5.4,14.1,0,19.5L57.3,463.3
            C54.6,466,51.1,467.3,47.6,467.3z M386.9,492.5c-58.2,0-105.5-47.3-105.5-105.5s47.3-105.5,105.5-105.5S492.4,328.8,492.4,387S445,492.5,386.9,492.5z"/>
    </g>
</svg>
