<?xml version="1.0" encoding="utf-8"?>
<!-- Generator: Adobe Illustrator 18.1.1, SVG Export Plug-In . SVG Version: 6.00 Build 0)  -->
<svg version="1.0" id="Camada_1" xmlns="http://www.w3.org/2000/svg" xmlns:xlink="http://www.w3.org/1999/xlink" x="0px" y="0px"
     viewBox="0 0 500 500" enable-background="new 0 0 500 500" xml:space="preserve">

    <g>
        <path d="M397,359c-1.7-45.4-19.1-81.7-51.4-108.9l0,0c-26.8-26.8-26.9-43.2-26.9-43.2l0,0c0-15.2,0.1-30.4,0-45.6
            c-0.1-21.4-15-39.3-35.4-43c-2.4-0.4-3.6-0.6-3.6-2.9c0.1-19.5-0.5-60.4-0.5-63.4c20.9,0,38.2,0,56.9,0c-0.4,0-0.5-5.8-1-8.5
            c-4.7-26.2-26.2-43.9-53.4-44c-42.2-0.1-155.1,0.3-166.2,0.2c-2.5,0-2.3,0.5-2.2,3.1c0.1,16.2,0.3,28.6,0.3,44.9
            c0,4.1,3.2,4.3,3.2,4.3c11.6,0,36.9-0.2,37.8-0.1c9.6,1.8,18.8,7.5,27.1,12.5c1.1,0.7,2.1,1.2,1.6,2.9
            c-4.2,13.9-14.7,24.9-27.9,31.5c-4.3,2.1-9.3,3.4-16.3,5.2c0,3,0,6.4,0,10c26,1.5,48.1-7.8,63.2-28.4c7.1,9.8,12.9,20.3,15.1,31.9
            c-0.7,0.2-0.6,0.4-1.1,0.5c-23.1,4.7-37.5,21.5-37.5,45.2c0,14.6-0.7,29.1-0.7,43.7l0,0c0,0,0.9,17.5-19.8,38.2c0,0,0.5,0,0.5,0.1
            c-34.6,26.5-53.9,62.5-56.8,108.3c-1.7,26.8-0.7,53.8-0.3,80.7c0.5,37.1,30.6,66.6,67.8,66.7c53.3,0.1,106.6,0.1,159.9,0
            c37.5-0.1,67.5-29.9,67.8-67.5C397.3,408.6,397.9,383.8,397,359z"/>
    </g>

</svg>
