<?xml version="1.0" encoding="utf-8"?>
<!-- Generator: Adobe Illustrator 18.1.1, SVG Export Plug-In . SVG Version: 6.00 Build 0)  -->
<svg version="1.0" id="Camada_1" xmlns="http://www.w3.org/2000/svg" xmlns:xlink="http://www.w3.org/1999/xlink" x="0px" y="0px"
	 viewBox="0 0 500 500" enable-background="new 0 0 500 500" xml:space="preserve">
<path d="M464.5,353.4c-28.3-22.6-50.1-33.1-68.6-33.1c-22.2,0-39.4,12.3-53.2,31.6c-4.8,6.7-10.8,9-15.2,9.6
	c-14.4,1.9-47.1-13-110.9-76.2c-28.7-28.5-49.7-52.8-62.5-72.3c-15.4-23.4-18.9-39.6-10.5-48c1.8-1.8,3.6-3.6,5.4-5.4
	c29.8-29.6,53.4-52.9-2.4-121.7C127.1,13.8,108.4,2.1,89.3,2.1c-25.9,0-70.6,47.3-73.6,50.4c-19.7,19.8-19.1,64,1.5,118.2
	C40.4,231.4,86,297.4,145.7,356.7c105.9,105.1,206.1,142.4,259.7,142.4c20.2,0,35.9-5.1,45.5-14.7c3-3.1,51-49,49.8-75.8
	C499.8,390.2,488,372.1,464.5,353.4z"/>
</svg>
