<?xml version="1.0" encoding="utf-8"?>
<!-- Generator: Adobe Illustrator 18.1.1, SVG Export Plug-In . SVG Version: 6.00 Build 0)  -->
<svg version="1.1" id="Camada_1" xmlns="http://www.w3.org/2000/svg" xmlns:xlink="http://www.w3.org/1999/xlink" x="0px" y="0px"
	 viewBox="0 0 1000 1000" enable-background="new 0 0 1000 1000" xml:space="preserve">
<g>
	<path d="M970.9,577H793v-34.8c0-15,4.5-27.1,1.5-39.2C897,481.9,980.6,370.3,980.6,234.6c0-18.1-10.9-30.1-29-30.1
		c-18.1,0-29.6,12.1-29.6,30.1c0,108.6-60,196-141.4,208.1c-15-21.1-33-27.1-57.2-27.1c-6-87.4-45.1-159.8-102.4-205
		c39.2-33.2,66.3-84.4,66.3-141.7c0-18.1-12-30.2-30.1-30.2c-18.1,0-30.2,12.1-30.2,30.2c0,45.2-24.1,87.4-63.3,108.5
		c-21-9.1-42.2-12.1-63.3-12.1c-21.1,0-42.2,3-63.3,12.1C401.1,156.3,374,114.1,374,68.9c0-18.1-12-30.2-30.1-30.2
		c-18.1,0-30.2,12.1-30.2,30.2c0,57.3,24.1,108.5,66.3,141.7c-54.2,45.2-93.4,120.5-102.5,205c-24.1,0-45.2,9.1-57.3,27.1
		c-81.4-12-141.7-99.5-141.7-208.1c0-18.1-12-30.1-30.1-30.1c-18.1,0-30.2,12.1-30.2,30.1c0,132.7,75.8,244.3,181.3,268.4
		c0,12-5.6,24.1-5.6,39.2V577H30.3c-18.1,0-30.2,15.4-30.2,33.5c0,18.1,12.1,33.5,30.2,33.5h177.8c6.1,34,12.1,48.6,21.1,69.7
		C117.7,728.8,30.3,820.9,30.3,938.5c0,18.1,12,29.5,30.1,29.5c18.1,0,30.2-12.4,30.2-30.5c0-93.5,75.4-169,168.8-169
		c54.3,90.4,141.7,150.7,241.2,150.7c99.5,0,183.9-60.4,241.2-150.8c93.5,0,168.8,75.4,168.8,168.8c0,18.1,12,30.2,30.2,30.2
		c18.1,0,30.1-12.1,30.1-30.2c0-114.6-87.4-208.4-198.9-223.5c9-24.1,18.1-35.7,21.1-69.7h177.8c18.1,0,30.2-15.4,30.2-33.5
		C1001,592.4,985.9,577,970.9,577z M739.6,604h-57.5C677.6,697,603,771.5,511,776.6V833c0,5.6-4.4,10.1-10,10.1s-10-4.5-10-10.1
		v-56.4C398,771.5,323.6,697,319.1,604h-57.4c-5.6,0-10.1-4.4-10.1-10s4.5-10,10.1-10h57.6c5.6-92,79.8-165.3,171.8-170.4V355
		c0-5.6,4.4-10.1,10-10.1s10,4.5,10,10.1v58.6c92,5,165.4,78.4,171,170.4h57.6c5.6,0,10.1,4.4,10.1,10S745.2,604,739.6,604z"/>
</g>
</svg>
