<?xml version="1.0" encoding="utf-8"?>
<!-- Generator: Adobe Illustrator 18.1.1, SVG Export Plug-In . SVG Version: 6.00 Build 0)  -->
<svg version="1.0" id="Camada_1" xmlns="http://www.w3.org/2000/svg" xmlns:xlink="http://www.w3.org/1999/xlink" x="0px" y="0px"
	 viewBox="0 0 500 500" enable-background="new 0 0 500 500" xml:space="preserve">
<path d="M374.8,63H352V39h23V16.3c0,0-3-16.3-25.7-16.3H144.4C121.7,0,121,16.3,121,16.3V39h23v24h-22.5C75.6,63,39,97.6,39,143.4
	v253.3c0,37.2,24.4,69.8,58.5,80.5c0,3.1-0.2,22.7,21.2,22.7H378c21.9,0,22.4-20.5,22.4-22.9c33.1-10.9,56.6-43.4,56.6-80.3V143.4
	C457,97.6,420.7,63,374.8,63z M204,39h88v24h-88V39z"/>
</svg>
