<?xml version="1.0" encoding="utf-8"?>
<!-- Generator: Adobe Illustrator 18.1.1, SVG Export Plug-In . SVG Version: 6.00 Build 0)  -->
<svg version="1.0" id="Camada_1" xmlns="http://www.w3.org/2000/svg" xmlns:xlink="http://www.w3.org/1999/xlink" x="0px" y="0px"
     viewBox="0 0 500 500" enable-background="new 0 0 500 500" xml:space="preserve">
<g>
        <path d="M455.2,399.3c-0.6-1.4-1.5-2.7-2.5-3.7l-50.2-50.2c-0.3-0.3-0.6-0.6-1-0.9c-5.7-4.5-13-7.1-20-7.1c-6,0-11.6,1.9-15.7,5.4
            c-0.2,0.2-0.5,0.4-0.7,0.6c-23.7,23.7-54.3,36.8-86,36.8c-32.9,0-63.1-12.2-84.8-34.4c-23.2-23.6-35.4-56.5-35.4-95
            c0-37.7,11.1-69.9,32-93.2c21.4-23.7,51.9-36.3,88.2-36.3c31.7,0,62.3,13.1,86,36.8c0.2,0.2,0.4,0.4,0.7,0.6
            c4.4,3.8,10.2,5.8,16.4,5.8c5.9,0,11.7-1.9,16.3-5.4c0.4-0.3,0.8-0.7,1.2-1.1l51.5-50.9c0,0,0,0,0.1-0.1
            c8.2-8.2,8.3-23.3,3.2-32.1c-0.6-1-1.2-1.9-2.1-2.6c-22.1-21.4-49.1-39.2-78-51.5c-31-13.2-63.1-19.9-95.4-19.9
            c-35.1,0-68.3,6.2-98.7,18.4c-29.8,12-56.1,29.4-78.2,51.7c-22.1,22.4-39.3,49-51.2,79.2c-12.1,30.9-18.2,64.6-18.2,100.3
            c0,36.9,6.5,71.5,19.3,102.9c12.3,30.2,30.1,56.7,53,79c44.9,43.7,106.7,67.8,174.1,67.8c32.2,0,64.3-6.6,95.4-19.8
            c28.8-12.2,55.8-29.8,78-50.9c0.1-0.1,0.1-0.1,0.2-0.2C461.6,420.7,457.5,404.7,455.2,399.3z"/>
    </g>
</svg>
