<?xml version="1.0" encoding="utf-8"?>
<!-- Generator: Adobe Illustrator 18.1.1, SVG Export Plug-In . SVG Version: 6.00 Build 0)  -->
<svg version="1.0" id="Camada_1" xmlns="http://www.w3.org/2000/svg" xmlns:xlink="http://www.w3.org/1999/xlink" x="0px" y="0px"
     viewBox="0 0 500 500" enable-background="new 0 0 500 500" xml:space="preserve">
    <g>
        <path d="M413,106.9c0-12.1-9.8-21.9-21.9-21.9H102.9C90.8,85,81,94.8,81,106.9v354.2c0,12.1,9.8,21.9,21.9,21.9h288.2
            c12.1,0,21.9-9.8,21.9-21.9V106.9z M316,463H178V105h138V463z M251.9,12.9c12,0,21.7,9.7,21.7,21.7s-9.7,21.7-21.7,21.7c-5,0-9.7-1.7-13.3-4.6c-5.1-4-8.4-10.2-8.4-17.1
            C230.2,22.6,239.9,12.9,251.9,12.9z M180.4,12.9c12,0,21.7,9.7,21.7,21.7s-9.7,21.7-21.7,21.7c-5.7,0-11-2.2-14.9-5.9c-4.2-4-6.8-9.6-6.8-15.8
            C158.7,22.6,168.4,12.9,180.4,12.9z M324.8,12.9c12,0,21.7,9.7,21.7,21.7s-9.7,21.7-21.7,21.7c-4.5,0-8.7-1.4-12.1-3.7c-5.8-3.9-9.6-10.5-9.6-18
            C303.1,22.6,312.8,12.9,324.8,12.9z M41.2,233.8c-5-8.7-13.2-8.8-18.2-0.1L2.3,271.3c-5,8.7-0.9,17.7,9.1,17.7h41.1c10,0,14.1-9,9.1-17.7L41.2,233.8z M490.6,233h-41.1c-10,0-14.1,4.1-9.1,12.8L461,280c5,8.7,13.2,7.8,18.2-0.9l20.6-32.9C504.7,237.5,500.6,233,490.6,233z"
            />
    </g>
</svg>
