<?xml version="1.0" encoding="utf-8"?>
<!-- Generator: Adobe Illustrator 18.1.1, SVG Export Plug-In . SVG Version: 6.00 Build 0)  -->
<svg version="1.0" id="Camada_1" xmlns="http://www.w3.org/2000/svg" xmlns:xlink="http://www.w3.org/1999/xlink" x="0px" y="0px"
     viewBox="0 0 500 500" enable-background="new 0 0 500 500" xml:space="preserve">
    <g>
        <path d="M397.5,448L287,447.3v-86.7c0-45.2,0.3-90.5,0.6-135.8c0.2-19.1,9.5-27,28.6-25.1c13.3,1.5,25.2,7.3,32.9,18.9
            c4.8,7.3,9.7,14.3-1.3,21.8c-7.5,5.2-6.7,14.5-4,22.4c2.9,8.1,9.9,10.6,18,10.6c3.8,0,7.6,0.1,11.3,0.1c-1.8,2.9-3.7,5.7-6.6,9.5
            c-9.2,12.3-25.5,25.4-25.5,40.7c0,19.5,15.8,35.2,35.2,35.2c19.5,0,35.2-15.8,35.2-35.2c0-15.6-13.6-38.6-24-50.1
            c3.9,0,7.8-0.2,11.7-0.5c15.5-1.2,24.9-20.7,13.5-29.7c-13.7-10.1-15.6-24.4-22.2-37.1c-12.9-25.1-32.8-40.9-61.2-46.7
            c-12.4-2.5-24.1,0-36.3-0.4c-0.8-7.7,5.2-10.4,7.9-15.1c17-28,10-66.4-17.8-81.9c-15.3-8.3-26.7-19.3-38-31.5
            c-8.9-9.7-19.9-16.6-32.4-21.1C165-7.3,124,6.6,90.8,51.8C80,66.3,70,80.8,54.3,91c-11.2,7.5-15.5,19.5-9.1,32.8
            c6.2,13.1,19.9,18.7,34.6,13.9c16-5.2,27.4-16.8,37.5-29.6c9.3-11.6,17.6-24.1,27-35.5C157,57.5,175.4,53.5,193.2,61
            c9.5,3.9,13.7,7.9,7,19.3c-13.7,23-11.6,46.2,4.1,68c3.9,5.6,8.3,10.6,8.3,18.3c-0.1,46.1,0,91.6,0,138.6h0.5v142H102
            c0,0-17.7,3.1-17,27c0.6,15.3,8.4,25.8,22.7,25.8c94.4-0.2,188.9,0,283.3-0.2c20.3,0,23.6-4.1,23.6-26.7
            C414.6,453,412,449.5,397.5,448z"/>
</g>
</svg>
