<?xml version="1.0" encoding="utf-8"?>
<!-- Generator: Adobe Illustrator 18.1.1, SVG Export Plug-In . SVG Version: 6.00 Build 0)  -->
<svg version="1.0" id="Camada_1" xmlns="http://www.w3.org/2000/svg" xmlns:xlink="http://www.w3.org/1999/xlink" x="0px" y="0px"
     viewBox="0 0 500 500" enable-background="new 0 0 500 500" xml:space="preserve">
    <g>
        <path d="M486.5,214c7.9,0,14.5-7.2,14.5-15.2V131c0-7.9-6.6-14-14.5-14h-28.7c0-12,0-19,0-19.9c0-9-5.4-13.1-14.5-13.1
            c-5.6,0-57,0-57,0l-31,60l24.9,0.2c8.4,0,10.9,5.2,5.6,11.7l-92.9,111.5c-5.4,6.5-7.8,5.2-5.3-2.9l19.8-68.3l-35.7,0.3
            c-8.4,0-12.2-5.7-8.5-13.2L312.4,84c0,0-229.6,0-273.4,0c-11.8,0-14,2.9-14,14.6c0,24.8,0,49.6,0,74.4c-5-0.1-9.5-0.1-13.9,0.1
            C4.3,173.7,0,177.6,0,184.5c0,49.8,0,99.6,0,149.4c0,6.6,4.6,10.9,11.2,11.4c4.2,0.3,8.8,0.1,13.8,0.1c0,19.2,0,60.2,0,61.7
            c0,5.7,3.2,10.2,8.9,11.2c2.3,0.4,411,0.4,413.2,0.1c5.8-0.8,9.8-5.2,10.2-11.1c0-0.3,0-8.3,0-22.3h29.1c7.9,0,14.5-5.8,14.5-13.7
            v-67.8c0-7.9-6.6-14.4-14.5-14.4h-29c0-25,0.1-51,0.1-75h29L486.5,214L486.5,214z M185.4,386H70.9c-4.5,0-8.2-3.5-8.2-8
            s3.7-8,8.2-8h114.5c4.5,0,8.2,3.5,8.2,8S189.9,386,185.4,386z M185.4,348H70.9c-4.5,0-8.2-3.5-8.2-8s3.7-8,8.2-8h114.5
            c4.5,0,8.2,3.5,8.2,8S189.9,348,185.4,348z M185.4,307H70.9c-4.5,0-8.2-3.5-8.2-8s3.7-8,8.2-8h114.5c4.5,0,8.2,3.5,8.2,8
            S189.9,307,185.4,307z"/>
</g>
</svg>
