<?xml version="1.0" encoding="utf-8"?>
<!-- Generator: Adobe Illustrator 18.1.1, SVG Export Plug-In . SVG Version: 6.00 Build 0)  -->
<svg version="1.0" id="Camada_1" xmlns="http://www.w3.org/2000/svg" xmlns:xlink="http://www.w3.org/1999/xlink" x="0px" y="0px"
	 viewBox="0 0 500 500" enable-background="new 0 0 500 500" xml:space="preserve">
<g id="maintenancePainting">
	<g id="pintura">
		<path d="M497,196.3c-1.9,8.8-8.4,14.1-17.5,16.2C419,226.2,358.7,240.1,298.3,254c-15.6,3.6-32,7.2-47.3,11.1
			c0,14.1,0,27.8,0,41.6c13.3,4.4,18.7,9.2,18.7,20.8c0.2,49.6,0.2,99.2,0,148.7c0,9.7-4.4,16.6-13.9,19.6c-0.4,0.2-0.8,1-1,1
			c-15.1,0-30.1,0-45.2,0c-12-3.8-15.6-13-15.4-25c0.4-32.8,0.2-65.8,0.2-98.6c0-15.4,0-30.9,0-46.1c0-10.1,5.3-17,15.3-19.3
			c1.1-0.2,3.2-0.6,3.2-1c0-1.9,0-3.6,0-5.3c0-15.6,0.2-31.5,0.2-47.1c0-13.9,5.1-20,18.7-23.3c74.2-17,148-34.1,222.2-51.3
			c1.9-0.4,3.1-1.1,5-1.5c0-26.7,0-51.3,0-78c-5.7,0-11.4,0-19.1,0c0,1.9,0,2.7,0,4.4c0,10.5,0.6,20.8,0.4,31.3
			c-0.2,11.4-7.4,18.9-18.9,19.5c-2.1,0.2-4,0-6.1,0c-126.6,0-253,0-379.7,0c-4.6,0-9,0-13.5-0.2c-7.6-0.4-12.6-4.6-15.6-11.4
			c-0.6-1.3-1.3-2.7-1.3-4c0-40,0-80.3,0-120.3C6.9,11.9,12.3,6.9,19.9,5c135,0,270.2,0,405.2,0c12,3.8,15.8,12.4,14.9,24.6
			c-0.2,2.7-0.4,5-0.4,7.6c0,7.8,0,15.6,0,23.8c13.3,0,23.8,0,35.5,0c2.3,0,4.4,0.2,6.7,0.6c9,1.9,13.3,8.2,15.3,16.4
			C497,117.3,497,156.8,497,196.3z"/>
	</g>
</g>
</svg>
