<?xml version="1.0" encoding="utf-8"?>
<!-- Generator: Adobe Illustrator 18.1.1, SVG Export Plug-In . SVG Version: 6.00 Build 0)  -->
<svg version="1.0" id="Camada_1" xmlns="http://www.w3.org/2000/svg" xmlns:xlink="http://www.w3.org/1999/xlink" x="0px" y="0px"
     viewBox="0 0 500 500" enable-background="new 0 0 500 500" xml:space="preserve">
    <g>
        <path d="M483.5,281H396v-17.2c0-7.5,1.7-13.5,0.2-19.5c51.1-10.5,92.4-66.1,92.4-133.7c0-9-5.6-15-14.6-15s-14.8,6-14.8,15
            c0,54.1-29.9,97.6-70.5,103.6c-7.5-10.5-16.5-13.5-28.5-13.5c-3-43.5-22.5-79.6-51-102.1c19.5-16.5,33-42.1,33-70.6
            c0-9-6-15-15-15s-15,6-15,15c0,22.5-12,43.5-31.5,54c-10.5-4.5-21-6-31.5-6s-21,1.5-31.5,6c-18-10.5-31.5-31.5-31.5-54
            c0-9-6-15-15-15s-15,6-15,15c0,28.5,12,54,33,70.6c-27,22.5-46.5,60-51,102.1c-12,0-22.5,4.5-28.5,13.5
            c-40.6-6-70.6-49.6-70.6-103.6c0-9-6-15-15-15s-15,6-15,15c0,66.1,38,121.7,90.5,133.7c0,6-2.6,12-2.6,19.5V281H15
            c-9,0-15,8-15,17s6,17,15,17h88.6c3,17,6,23.9,10.5,34.4C58.6,357,15,402.7,15,461.3c0,9,6,14.6,15,14.6s15-6.2,15-15.2
            c0-46.5,37.5-84.2,84.1-84.2c27,45,70.6,75,120.1,75c49.6,0,91.6-30.1,120.1-75.1c46.5,0,84.1,37.5,84.1,84.1c0,9,6,15,15,15
            s15-6,15-15c0-57.1-43.5-103.5-99.1-111c4.5-12,9-17.4,10.5-34.4h88.6c9,0,15-8,15-17C498.5,289,491,281,483.5,281z M341.9,278
            h-27.4c-4.7-27-26.5-49.2-52.5-54.1v-27.4C302,201.7,336.8,234,341.9,278z M238,278h-22.7c3.5-10,12.7-19.1,22.7-22.8V278z
             M238,301v21.8c-10-3.5-18.6-11.8-22.3-21.8H238z M262,301h20.8c-3.7,10-10.8,18.2-20.8,21.8V301z M262,278v-22.8
            c10,3.6,17.7,12.8,21.2,22.8H262z M238,196.4v27.4c-27,4.9-49.3,27.2-54,54.2h-27.4C161.7,234,194,201.7,238,196.4z M156.7,301
            h27.4c5.1,27,26.8,48.3,53.8,53.1v27.4C194,376.3,162.3,342,156.7,301z M262,381.6v-27.4c26-4.8,47.3-26.1,52.3-53.1h27.4
            C336.2,342,302,376.3,262,381.6z"/>
</g>
</svg>
