<?xml version="1.0" encoding="utf-8"?>
<!-- Generator: Adobe Illustrator 18.1.1, SVG Export Plug-In . SVG Version: 6.00 Build 0)  -->
<svg version="1.0" id="Camada_1" xmlns="http://www.w3.org/2000/svg" xmlns:xlink="http://www.w3.org/1999/xlink" x="0px" y="0px"
     viewBox="0 0 500 500" enable-background="new 0 0 500 500" xml:space="preserve">
    <g>
        <path d="M402.9,265.6l-28,198.1c-2.4,18.4-11.8,34.3-30.4,34.3H160.2c-18.6,0-25.7-16.2-28.7-34.6l-34.2-197
            c-3-18.3,9.8-33.4,28.4-33.4H236v-67.1c-45,20.6-57.4-22.1-57.4-22.1c29.8-16.8,49.4-2.3,57.4,8.9V98.3C142,96.2,148.5,4,148.5,4
            c82.1-1.2,95.5,48,96.2,75.8C255,32,309.3,35.9,309.3,35.9c0.8,55.9-35.3,64-51.3,64.3V233h115.5
            C392.1,233,405.3,247.2,402.9,265.6z"/>
</g>
</svg>
