<?xml version="1.0" encoding="utf-8"?>
<!-- Generator: Adobe Illustrator 18.1.1, SVG Export Plug-In . SVG Version: 6.00 Build 0)  -->
<svg version="1.1" id="Camada_1" xmlns="http://www.w3.org/2000/svg" xmlns:xlink="http://www.w3.org/1999/xlink" x="0px" y="0px"
	 viewBox="0 0 1000 1000" enable-background="new 0 0 1000 1000" xml:space="preserve">
<path d="M807.1,525.5l-56.2,398.3c-4.9,37-23.7,69.2-61,69.2H319.6c-37.3,0-51.7-32.9-57.7-69.8l-68.8-395.9
	c-6-36.9,19.7-67.3,57-67.3H467V325.2c-90,41.3-115.2-44.4-115.2-44.4c59.9-33.7,99.2-4.5,115.2,17.9V189.4
	C276,185.2,293.7,0,293.7,0c165-2.4,193.1,96.4,194.5,152.2C508.8,56.3,614.9,64,614.9,64C616.6,176.4,541,192.6,509,193.1V460
	h239.1C785.5,460,812,488.5,807.1,525.5z"/>
</svg>
