<?xml version="1.0" encoding="utf-8"?>
<!-- Generator: Adobe Illustrator 18.1.1, SVG Export Plug-In . SVG Version: 6.00 Build 0)  -->
<svg version="1.1" id="Camada_1" xmlns="http://www.w3.org/2000/svg" xmlns:xlink="http://www.w3.org/1999/xlink" x="0px" y="0px"
	 viewBox="0 0 1000 1000" enable-background="new 0 0 1000 1000" xml:space="preserve">
<path d="M963.7,594.6l-74.7-0.3v-75c0-52.2,0-104.4,0-156.5c26,0.3,52.8,0.5,78.9-0.3c20.4-0.5,32.1-14.7,32.1-35.4
	c0-24.6,0-49.4,0-74c0-27.7-11.7-39.6-39.6-39.8c-23.8-0.3-45.4,0-71.4,0c0-11.6,0-23.3,0-34.9c0-17.6-7.4-24.5-25-24.5
	c-10.9,0-21.5,0-32.3,0h-78.9l-60.5,116.7l48.6,0.3c16.3,0,21.2,10.1,10.9,22.8l-181,217.3c-10.6,12.7-15.3,10-10.3-5.7L599,372.2
	l-69.6,0.5c-16.3,0-23.8-10.8-16.5-25.6L608.8,154h-277c-85.3,0-170.4,0-255.7,0c-23,0-28,5.4-28,28.1c0,48.4,0,96.7,0,145.1
	c-11-0.3-18.2-0.3-26.7,0.3C8.1,328.5,0,336,0,349.4c0,97,0,194.2,0,291.2c0,12.9,8.6,21.2,21.5,22.2c8.3,0.5,15.5,0.3,26.5,0.3
	c0,37.5,0,74.7,0,112.2c0,2.6,0,5.2,0,8c0,11.1,6.6,19.1,17.8,20.9c4.4,0.8,7.4,0.8,11.8,0.8c313.4,0,467.1,0,780.5,0
	c4.4,0,8.8,0,13.2-0.5c11.4-1.6,17.5-9.3,18.3-20.7c0.3-3.9-0.6-7.5-0.6-11.4c0-4.6,0-9.5,0-14.1c0-0.5,0-0.9,0-0.9v-13.7l68.9-0.1
	c0,0,38.6,4.6,41.7-31.2l0.3-78.4C999.9,634.1,1003.7,595,963.7,594.6z M138,241.9c5-0.3,5.9-0.5,8.2-0.5c44.7,0,89.8,0.3,134.5-0.3
	c9.6,0,9.4,4.4,9.4,11.1c0,6.7,0,11.4-9.3,11.1c-44.7-0.5-89.9-0.3-134.6-0.3c-2.6,0-3.2-0.3-8.2-0.5C138,255.3,138,248.8,138,241.9
	z M138,291c5-0.3,5.9-0.5,8.4-0.5c44.7,0,89.8,0.3,134.5-0.3c9.3-0.3,9.4,4.4,9.4,11.1c0,6.7,0,11.4-9.5,11.1
	c-44.7-0.5-89.9-0.3-134.6-0.3c-2.3,0-3.2-0.3-8.2-0.3C138,304.7,138,298,138,291z M272.8,360c-40.6,0-80.9,0-121.5,0
	c-15.3,0-13.2,1.4-13.4-13.6c0-2.3,0.3-2.4,0.5-7.4c50.4,0,100.3,0,150.7,0c0.5,0,0.8,1.7,0.8,2.2C291.4,360.1,291.4,360,272.8,360z
	 M138,567c52,0,100.7,0,152.1,0c0,5,0.5,10.8-0.3,16.5c-0.3,1.8-4.4,3.9-7,4.2c-11.9,0.5-24,0.3-36.2,0.3c-32.3,0-64.6,0-96.7,0
	c-12.2,0-12-1.2-12-13.1C138,572.1,138,567,138,567z M137.8,614.2c4.1-0.3,7.2-0.2,10.1-0.2c44,0,87.9,0,131.6,0
	c3.4,0,9.6,1,9.8,2.6c1,5.9,0.5,12-0.5,18c-0.3,1-5.2,1.5-8,1.5c-44.7,0-89.5,0-134.5,0.2c-6.7,0-9.3-2.3-8.5-9.2
	C138.3,623.1,137.8,619.4,137.8,614.2z M272.8,736c-40.6,0-80.9,0-121.5,0c-15.3,0-13.2,1.5-13.4-13.7c0-2.3,0.3-2.3,0.5-7.3
	c50.4,0,100.3,0,150.7,0c0.5,0,0.8,1.6,0.8,2.1C291.7,736.2,291.7,736,272.8,736z M291,683c-53,0-101,0-153,0c0-5,0-11,0-21
	c52,0,100,0,153,0C291,672,291,678,291,683z"/>
</svg>
