<?xml version="1.0" encoding="utf-8"?>
<!-- Generator: Adobe Illustrator 18.1.1, SVG Export Plug-In . SVG Version: 6.00 Build 0)  -->
<svg version="1.0" id="Camada_1" xmlns="http://www.w3.org/2000/svg" xmlns:xlink="http://www.w3.org/1999/xlink" x="0px" y="0px"
	 viewBox="0 0 500 500" enable-background="new 0 0 500 500" xml:space="preserve">
<path d="M400.1,358c-1.7-45.2-19-81.4-51.2-108.6c0,0,0,0,0,0c-26.7-26.7-26.8-43.1-26.8-43.1l0,0c0-15.1,0.1-30.3,0-45.4
	c-0.1-21.3-14.9-39.2-35.3-42.9c-2.4-0.4-3.6-0.5-3.6-2.9c0.1-19.5-0.5-60.2-0.5-63.2c20.8,0,38.1,0,56.8,0c-0.4,0-0.5-5.8-1-8.6
	c-4.6-26.1-26.1-43.8-53.3-43.9c-42.1-0.1-154.6,0.3-165.7,0.1c-2.5,0-2.3,0.5-2.2,3.1c0.1,16.2,0.3,28.5,0.3,44.7
	c0,4.1,3.2,4.3,3.2,4.3c11.6,0,36.8-0.2,37.7-0.1c9.6,1.8,18.7,7.5,27.1,12.5c1.1,0.7,2.1,1.2,1.6,2.9
	c-4.1,13.9-14.6,24.9-27.7,31.4c-4.3,2.1-9.2,3.4-16.2,5.1c0,3,0,6.3,0,10c26,1.5,47.9-7.8,63-28.3c7.1,9.7,12.8,20.2,15.1,31.8
	c-0.7,0.2-0.6,0.4-1.1,0.5c-23.1,4.7-37.3,21.4-37.3,45c0,14.5-0.6,29-0.6,43.6v0c0,0,0.8,17.5-19.8,38.1c0,0,0.4,0,0.4,0.1
	c-34.5,26.4-53.8,62.3-56.7,108c-1.7,26.7-0.7,53.7-0.3,80.5c0.5,37,30.6,66.4,67.6,66.5c53.1,0.1,106.3,0.1,159.4,0
	c37.4-0.1,67.3-29.9,67.7-67.3C400.5,407.5,401.1,382.7,400.1,358z"/>
</svg>
