<?xml version="1.0" encoding="utf-8"?>
<!-- Generator: Adobe Illustrator 18.1.1, SVG Export Plug-In . SVG Version: 6.00 Build 0)  -->
<svg version="1.0" id="Camada_1" xmlns="http://www.w3.org/2000/svg" xmlns:xlink="http://www.w3.org/1999/xlink" x="0px" y="0px"
     viewBox="0 0 500 500" enable-background="new 0 0 500 500" xml:space="preserve">
<g>
    <path d="M54.9,194.1c30.9,0,55.9,25,55.9,55.9s-25,55.9-55.9,55.9c-11.6,0-22.3-3.5-31.3-9.5C8.8,286.3-1,269.3-1,250
        C-1,219.1,24,194.1,54.9,194.1z M250,194.1c30.9,0,55.9,25,55.9,55.9s-25,55.9-55.9,55.9c-11.6,0-22.3-3.5-31.3-9.5c-14.9-10-24.7-27.1-24.7-46.4
        C194.1,219.1,219.1,194.1,250,194.1z M445.1,194.1c30.9,0,55.9,25,55.9,55.9s-25,55.9-55.9,55.9c-7.7,0-15.1-1.6-21.8-4.4c-20.1-8.5-34.2-28.4-34.2-51.5
        C389.2,219.1,414.2,194.1,445.1,194.1z"/>
</g>
</svg>
