<?xml version="1.0" encoding="utf-8"?>
<!-- Generator: Adobe Illustrator 18.1.1, SVG Export Plug-In . SVG Version: 6.00 Build 0)  -->
<svg version="1.0" id="Camada_1" xmlns="http://www.w3.org/2000/svg" xmlns:xlink="http://www.w3.org/1999/xlink" x="0px" y="0px"
     viewBox="0 0 500 500" enable-background="new 0 0 500 500" xml:space="preserve">
        <g>
            <path d="M360.3,308.4c-14.4-6.6-28.9-12.9-43.4-19.5c-5-2.2-9.6-4.7-12.3-10c-4.8-9.7,4-47.2,12.8-53.8
                c13.3-10,14.6-24.8,16.5-39.4c0-0.1,0-0.1,0-0.2v-0.1c0.1-0.9,0.2-1.8,0.4-2.7c0.1-0.5,0.1-0.9,0-1.4c1.1-16.3-4.7-16.3-9.4-13.7
                c-0.1-1.4-0.1-2.8,0.1-4.4c0.6-6.5,0.7-13.1,0.7-19.7c0-34.2-23-63.1-55.2-69.4c-34.4-6.7-67.4,10.3-80.8,41.8
                c-4.9,11.6-6.8,23.5-5.2,36.2c0.6,5.1,2.5,10.8,1.1,15.7c-6.5-1.9-18-1.1-5.3,36.4c2.2,9.2,4.6,18.3,15.4,22.9
                c1.8,0.8,2.4,4.6,3.3,7.2c2.4,6.9,4.6,13.9,7.1,20.8c6.2,16.7,1.9,27.4-14.2,34.7c-14.8,6.7-29.7,13.1-44.3,20.2
                c-15.3,7.4-24.4,19.5-27.3,36.5c-1.5,8.8-2.3,17.6-2.1,26.5c0.4,23.5,8.8,33.8,32.1,38.2c34.7,6.6,69.9,6.7,105.1,6.5
                c10.4,0,20.9,0.3,31.3,0c25.9-1,51.8-1.6,77.2-7c15.8-3.3,25.6-12.3,26.6-25.3c0.9-12.7,0.6-25.4-1-38.2
                C386.9,328.4,377,316,360.3,308.4z M476.8,300.5c-6.5-3.3-13.3-6.1-20-9.2c-3.5-1.6-7.1-3.1-10.4-5c-5.7-3.3-7.5-8.7-6.7-14.9c0.8-5.7,4.5-8.3,10.1-9.6
                c12.4-2.9,25-5.6,35-14.3c7.9-7,7.8-11-0.9-16.5c-7.3-4.6-11.6-11.1-14.2-19.1c-3.1-9.6-4.2-19.7-4.9-29.6
                c-2.3-31.7-21.8-53.4-52.1-57.3c-26.1-3.3-51.9,15.3-60,44.3c-3.4,12.2-4.7,25-7.5,37.4c-2.1,9.4-4.4,18.9-14,24.2
                c-11.2,6.1-11.3,9.7-1.3,17.5c10.4,8.1,22.9,10.8,35.3,13.8c10.2,2.5,13.3,12,7,20.4c-2.7,3.6-6.7,5.1-10.4,7.2
                c-2.5,1.4-6.9,1.3-6.6,5.3c0.2,2.9,3.6,3.8,6,4.8c22.6,9.4,33.6,26.8,37.1,50.6c1.2,8.2-4.5,19.9,5.4,24.2
                c7.6,3.3,17.5,1.4,26.3,1.7c17.5,0.2,34.7-1.6,51.8-5c7.2-1.4,13-4.9,16-12C506.3,339.4,495.9,310.1,476.8,300.5z M153.7,297.8c2.5-0.9,4.9-2.2,7.3-3.5c3.2-1.9,8.8-2.3,9-6.3c0.2-5.1-5.8-5.5-9.4-7.1c-7.5-3.3-16.5-5.4-17.4-15
                c-1.3-13.8,3-27.7,11.7-37.4c8.5-9.6,10.7-19.9,12.6-31.2c0.5-3.1-0.1-6.9-3-8.4c-1.4-1.6-3.3-2.3-5.1-2.4
                c-3.3-2.7-2.5-6.9-1.8-11.6c4.8-32.9-16.2-62.4-45.2-64.1c-37.3-2.2-59.1,18.5-59.3,55.9c0,6.7,2.4,14.4-2,19.8
                c-3.4-0.1-7.9,1.1-8.6,7.9c-0.1,0.4-0.1,0.7-0.1,1c-0.1,3.3,0.6,7.7,2.5,13.7c1.5,6.4,3.9,12.5,8.9,17.6
                c10.4,10.5,12.5,24.1,13.7,37.7c0.6,6.3-4.3,10.4-10,13c-9.2,4.1-17.6,8.5-26.9,12.3C9,298.5-5,312.1,1,337.7c0,2.3,0,4.6,0,7
                c0,22.3,3.7,27.7,26,31.2c22.5,3.6,45.1,3.5,67.8,5c11.5,0.7,15.3-3,15.4-14.9C110.3,334.4,121.9,309.4,153.7,297.8z"/>
        </g>
</svg>
