<?xml version="1.0" encoding="utf-8"?>
<!-- Generator: Adobe Illustrator 18.1.1, SVG Export Plug-In . SVG Version: 6.00 Build 0)  -->
<svg version="1.0" id="Camada_1" xmlns="http://www.w3.org/2000/svg" xmlns:xlink="http://www.w3.org/1999/xlink" x="0px" y="0px"
	 viewBox="0 0 500 500" enable-background="new 0 0 500 500" xml:space="preserve">
<path d="M491.2,314c-12-15.1-28.3-24.4-45-32.9c-10.6-5.4-21.5-10.3-32.8-14.1c-12.4-4.2-17.3-21.4-8.8-31.2
	c15.6-18.1,26.6-38.5,30.9-61.9c5.1-27.8,3.5-54.7-17.8-76c-14.2-14.2-31.2-20.2-48.5-19.7c-17.3-0.4-34.5,5.5-48.7,19.7
	c-12.1,12.1-17.8,26-19.6,40.8c-0.5-0.6-1.2-1.2-1.8-1.7c-14.2-14.2-31.4-20.1-48.7-20.1s-34.3,5.9-48.5,20.1
	c-0.6,0.6-1.1,1.2-1.6,1.7c-1.8-14.8-7.6-28.7-19.6-40.8c-14.2-14.2-31.4-20.2-48.7-19.7c-17.3-0.4-34.3,5.5-48.5,19.7
	c-21.3,21.3-22.9,48.3-17.8,76c4.3,23.4,15.3,43.7,30.9,61.9c8.5,9.9,3.7,27.1-8.8,31.2c-11.3,3.8-22.2,8.7-32.8,14.1
	c-16.8,8.5-33,17.8-45,32.9c-9.9,12.5-11.2,29.1-3.2,41.5c6.8,10.5,17.2,14.8,28.4,18.3c22,7.1,50.5,9.3,75.2,10.5
	c7.1-17.2,16.3-28.6,16.3-28.6c-9.6,16.6-4.9,31.9-4.2,33.8c0.8,1.9,1.7,3.7,2.8,5.4c6.8,10.5,17.2,14.8,28.4,18.3
	c29.8,9.5,62.2,10.3,96.7,11.6c0.1,0,0.1,0,0.1,0c0,0,0.2,0,0.3,0c34.6-1.3,67-2.1,96.8-11.6c11.2-3.6,21.6-7.8,28.4-18.3
	c1.1-1.7,2.1-3.5,2.8-5.4c0.6-1.9,5.4-17.2-4.2-33.8c0,0,9.2,11.4,16.3,28.6c24.7-1.2,53.2-3.5,75.2-10.5
	c11.2-3.6,21.6-7.8,28.4-18.3C502.4,343.1,501.1,326.5,491.2,314z M219,286.3c0.1,7.6-4.2,21.2-34.5,25.5c0,0,27.9-9.8,24.1-31
	c-10.4-5.3-21.2-10.1-32.2-13.8c-12.4-4.2-17.3-21.4-8.8-31.2c6.3-7.3,11.7-14.9,16.4-22.9c0,0.1,0,0.2,0.1,0.3
	c4.3,23.4,15.3,43.8,30.9,62c1.5,1.7,2.5,3.7,3.2,5.8c0,0,0,0,0,0s0.2,0.5,0.4,1.5c0.3,1.3,0.5,2.6,0.6,3.9
	C219.1,286.3,219,286.3,219,286.3z M324.6,267c-11.1,3.7-21.8,8.6-32.2,13.8c-3.8,21.2,24.1,31,24.1,31c-30.3-4.4-34.5-18-34.5-25.5
	c-0.1,0-0.1,0.1-0.2,0.1c0.1-1.3,0.3-2.6,0.6-3.9c0.2-0.9,0.4-1.5,0.4-1.5s0,0,0,0c0.7-2.1,1.7-4.1,3.2-5.8
	c15.6-18.1,26.6-38.6,30.9-62c0-0.1,0-0.2,0.1-0.3c4.6,8,10.1,15.7,16.4,22.9C341.9,245.7,337.1,262.9,324.6,267z"/>
</svg>
