<?xml version="1.0" encoding="utf-8"?>
<!-- Generator: Adobe Illustrator 18.1.1, SVG Export Plug-In . SVG Version: 6.00 Build 0)  -->
<svg version="1.1" id="Camada_1" xmlns="http://www.w3.org/2000/svg" xmlns:xlink="http://www.w3.org/1999/xlink" x="0px" y="0px"
	 viewBox="0 0 1000 1000" enable-background="new 0 0 1000 1000" xml:space="preserve">
<path d="M993.9,392.9c-3.9,17.7-17,28.5-35.4,32.7c-122.1,27.7-243.9,55.9-366,84c-31.6,7.3-64.7,14.6-95.5,22.3c0,28.5,0,56.2,0,84
	c27,8.9,37.8,18.5,37.8,42c0.4,100.2,0.4,200.3,0,300.5c0,19.6-8.9,33.5-28.1,39.7c-0.8,0.4-1.5,1.9-1.9,1.9c-30.4,0-60.9,0-91.3,0
	c-24.3-7.7-31.6-26.2-31.2-50.5c0.8-66.3,0.4-132.9,0.4-199.2c0-31.2,0-62.4,0-93.2c0-20.4,10.8-34.3,30.8-38.9
	c2.3-0.4,6.5-1.2,6.5-1.9c0-3.9,0-7.3,0-10.8c0-31.6,0.4-63.6,0.4-95.2c0-28.1,10.4-40.4,37.8-47c149.9-34.3,298.9-69,448.8-103.6
	c3.9-0.8,6.2-2.3,10-3.1c0-53.9,0-103.6,0-157.6c-11.6,0-23.1,0-38.5,0c0,3.9,0,5.4,0,8.9c0,21.2,1.2,42,0.8,63.2
	c-0.4,23.1-15,38.1-38.1,39.3c-4.2,0.4-8.1,0-12.3,0c-255.8,0-511.2,0-767,0c-9.2,0-18.1,0-27.4-0.4c-15.4-0.8-25.4-9.2-31.6-23.1
	c-1.2-2.7-2.7-5.4-2.7-8.1C0,198,0,116.7,0,35.8C3.9,20.4,14.6,10.3,30,6.5c272.7,0,545.9,0,818.6,0c24.3,7.7,32,25,30,49.7
	c-0.4,5.4-0.8,10-0.8,15.4c0,15.8,0,31.6,0,48.2c27,0,48.2,0,71.7,0c4.6,0,8.9,0.4,13.5,1.2c18.1,3.9,27,16.6,30.8,33.1
	C993.9,233.4,993.9,313.1,993.9,392.9z"/>
</svg>
