<?xml version="1.0" encoding="utf-8"?>
<!-- Generator: Adobe Illustrator 18.1.1, SVG Export Plug-In . SVG Version: 6.00 Build 0)  -->
<svg version="1.0" id="Camada_1" xmlns="http://www.w3.org/2000/svg" xmlns:xlink="http://www.w3.org/1999/xlink" x="0px" y="0px"
	 viewBox="0 0 500 500" enable-background="new 0 0 500 500" xml:space="preserve">
<g>
	<path d="M460.5,117.3c-0.1-7.5-0.5-14.9-0.5-22c0,0,0,0,0-0.1c0-22-20-25.3-20-25.3v0c-62-6.8-135.8-45.7-170.3-65.8
		c0,0,0.1,0.3,0.1,0.3c-6.2-3.5-12.4-4.7-17.9-4.6c-5.5,0-11.6,1.1-17.8,4.6C199.5,24.4,126,63.2,64,69.9v0c0,0-20,3.2-20,25.3
		c0,0,0,0,0,0.1c0,7.2-0.3,14.5-0.4,22c-1.3,68.8-3.1,146.7,22.9,217.1c27.2,73.8,79.7,126.6,161.1,160.8c9.2,3,18.8,4,24.3,4.1
		c5.5-0.1,15.5-1.1,24.7-4.1c81.3-34.2,133.7-87,161-160.8C463.5,264.1,461.8,186.1,460.5,117.3z"/>
</g>
</svg>
