<?xml version="1.0" encoding="utf-8"?>
<!-- Generator: Adobe Illustrator 18.1.1, SVG Export Plug-In . SVG Version: 6.00 Build 0)  -->
<svg version="1.0" id="Camada_1" xmlns="http://www.w3.org/2000/svg" xmlns:xlink="http://www.w3.org/1999/xlink" x="0px" y="0px"
	 viewBox="0 0 500 500" enable-background="new 0 0 500 500" xml:space="preserve">
<g>
	<path d="M455,22.2C455,8.8,444.2-2,430.8-2H74.2C60.8-2,50,8.8,50,22.2v453.5c0,13.4,10.8,24.2,24.2,24.2h356.5
		c13.4,0,24.2-10.8,24.2-24.2V22.2z M178.4,113.7c31.8,0,57.6,25.8,57.6,57.6c0,31.8-25.8,57.6-57.6,57.6
		c-31.8,0-57.6-25.8-57.6-57.6C120.8,139.5,146.6,113.7,178.4,113.7z M143.3,365.3c-1.9,0-3.8-0.7-5.3-2.2c-2.9-2.9-2.9-7.7,0-10.6
		l221.6-221.6c2.9-2.9,7.7-2.9,10.6,0c2.9,2.9,2.9,7.7,0,10.6L148.6,363.1C147.2,364.6,145.2,365.3,143.3,365.3z M328.6,379.1
		c-31.8,0-57.6-25.8-57.6-57.6c0-31.8,25.8-57.6,57.6-57.6c31.8,0,57.6,25.8,57.6,57.6C386.1,353.2,360.3,379.1,328.6,379.1z"/>
</g>
</svg>
