<?xml version="1.0" encoding="utf-8"?>
<!-- Generator: Adobe Illustrator 18.1.1, SVG Export Plug-In . SVG Version: 6.00 Build 0)  -->
<svg version="1.0" id="Camada_1" xmlns="http://www.w3.org/2000/svg" xmlns:xlink="http://www.w3.org/1999/xlink" x="0px" y="0px"
     viewBox="0 0 500 500" enable-background="new 0 0 500 500" xml:space="preserve">
    <g>
        <path d="M463.3,354.8c-28.2-22.5-49.9-32.9-68.3-32.9c-22.1,0-39.2,12.2-52.9,31.5c-4.8,6.7-10.7,8.9-15.2,9.5
            c-14.3,1.9-46.8-12.9-110.3-75.9c-28.5-28.3-49.4-52.5-62.2-71.9c-15.3-23.3-18.8-39.4-10.5-47.8c1.8-1.8,3.6-3.6,5.3-5.3
            c29.7-29.4,53.1-52.7-2.4-121.2c-19.4-23.9-38-35.6-57-35.6C64,5.2,19.6,52.3,16.6,55.3C-3,75.1-2.4,119.1,18.1,173
            C41.2,233.4,86.6,299.2,146,358.1c105.4,104.6,205.1,141.7,258.5,141.7c20.1,0,35.8-5,45.2-14.6c3-3,50.8-48.8,49.5-75.4
            C498.4,391.5,486.7,373.5,463.3,354.8z"/>
    </g>
</svg>
